<mxfile host="app.diagrams.net" modified="2021-01-09T12:19:55.671Z" agent="5.0 (Windows NT 10.0; Win64; x64) AppleWebKit/537.36 (KHTML, like Gecko) Chrome/78.0.3904.70 Safari/537.36" etag="c3p8PMfiLl7_uZrZJhH-" version="14.1.8" type="github">
  <diagram id="olpCBwYJOUOfCan06i0C" name="第 1 页">
    <mxGraphModel dx="1038" dy="580" grid="1" gridSize="10" guides="1" tooltips="1" connect="1" arrows="1" fold="1" page="1" pageScale="1" pageWidth="827" pageHeight="1169" math="0" shadow="0">
      <root>
        <mxCell id="0" />
        <mxCell id="1" parent="0" />
        <mxCell id="WXDt8j99z8qKCZrIY5PG-10" value="" style="rounded=0;whiteSpace=wrap;html=1;" vertex="1" parent="1">
          <mxGeometry x="20" y="50" width="1610" height="700" as="geometry" />
        </mxCell>
        <mxCell id="WXDt8j99z8qKCZrIY5PG-11" value="流量网关系统架构图" style="text;html=1;strokeColor=none;fillColor=none;align=center;verticalAlign=middle;whiteSpace=wrap;rounded=0;fontStyle=1;fontSize=14;" vertex="1" parent="1">
          <mxGeometry x="23" y="70" width="170" height="20" as="geometry" />
        </mxCell>
        <mxCell id="WXDt8j99z8qKCZrIY5PG-25" style="edgeStyle=orthogonalEdgeStyle;rounded=0;orthogonalLoop=1;jettySize=auto;html=1;exitX=1;exitY=0.5;exitDx=0;exitDy=0;entryX=0;entryY=0.5;entryDx=0;entryDy=0;fontSize=14;" edge="1" parent="1" source="WXDt8j99z8qKCZrIY5PG-12" target="WXDt8j99z8qKCZrIY5PG-13">
          <mxGeometry relative="1" as="geometry" />
        </mxCell>
        <mxCell id="WXDt8j99z8qKCZrIY5PG-12" value="" style="shape=image;verticalLabelPosition=bottom;verticalAlign=top;imageAspect=0;aspect=fixed;image=data:image/png,iVBORw0KGgoAAAANSUhEUgAAADIAAAAyCAYAAAAeP4ixAAAIxUlEQVRoQ+1ZfUwU6Rl/3hlhQYzKp+ihUjGVJlYkhsSPNEqtBK6wO8vObqWcgHJHa815kFgT48dRP/4xTY5rS4OWUgGhKTvrzqw0eGAiNippjJF6aUpiNKgcAp6iIqSy7LzNs9kl7O7s7gxCL730+Wdh5vn6vc/7Ph/vEPiWEFGDw2q15hBCfkII2UUp1RFC/kYpvcTz/J/VyKvlEQThAwAwAsAPAODfANDFsuxfjEZjZzgdIYGIovh9p9P5a0JIThBFLyilH5jN5o5whkK9t1qtBkJIEwAsDsL3hSzLv7RYLF8G0xMUiM1mS6GUouDScE5ipEwm09VwfErvBUF4HwD+Gk6WEDIKABtMJtOAEm8oIA2U0r3hDHje/53n+c0qeX3YBEH4GgDiVco28DxfrhqIzWZbTSntV6nczUYpLTCbze1aZDxbStQiI8vyaovF8thfRjEiNpvtY0rpb7QYAIA/8jz/oRYZq9XaQAhRG3W3akLIQZPJ9FtVQBobG7tjYmK2a3HK6XQOFhUVvadFpqWlZVin0yVpkXn79m1HcXExnisfUoxITU3NQEpKiianXr16NVVeXh6hxan6+nq6dGnYXOKjcnBw8MHBgwfXqgJy9OjRLzMzM9drcer+/fsTR44cidEic+bMGbpu3TotInDv3r2ekydPblUFpLi4uNVoNBZpsXDt2rWB2tralTNlBEHgCCEZ+EyW5V6z2SzNfL9///7RnTt3agqJKIr1Fy9e/EgVEIPB8LOsrKy69PR0VViGhoagq6urWZKkEhSw2WxllNLPFGoQZsIqnufdmcpgMFh37drFJycnq7LT19cHt2/fLpUkCYtn+DOSn5//XnR09EB+fj7ExITfLR0dHfDs2TOLw+Gw2my2Sg+IoM5hpjKZTBcMBkNJYmJiY25ublgg4+Pj0N7eDlNTUwl2u/25KiCe1WpauHDhnk2bNkFqaqqioeHhYbh79y6CeCtJUpTVat1BCLkW1isAYFn2O0ajsd9gMNDExETIzMyEZcuWKYr29/fDnTt3YGJi4pwkST9XYgpa2Y1G43dlWf4XADDx8fFuMMuXLweGYWBkZAQeP34Mg4ODbp3YUIqi2CYIAm4ZgxogANDI83yZwWDAOtKAMitWrIBVq1a5AblcLnj69CkgiOfP3QEYc7lc32tvb/9KExBPVH4EAM0AEHQTU0orHA7HH5BfEASqEgSyveR5Phb/4DguZAGmlD5kWbbUbrffCKZfVRuv1+srCCGYxXZ4FI0AwOeEkN+LovgSn1VXVzPr1693aQACPM9P29fr9csIIb8AgAMzeq9OSmmrw+FoDKdXFRCvkry8PJ1Op4v2Oj9TOTpSUlIyFM6g973T6YSioiIG2zR/mYKCgoSoqKhRq9WqemEUgdjt9lSn07maZVlvBEL59wgzUF5eXmJhYeFIbKx7t4SlJ0+eQFVVlRtIW1vbRgBYEkqIYZiNWIsiIiIeYZLw5/UB4sn/nwKAcppSttTL83wmvjp06NDE5s2bo8OiAICrV69+XVdXl+g5W7g9QwLx04lAqnmen95y00A0Zhwfvd5Uqtfr67Ozs8tXrvQp8AG4Hjx4ALdu3aqTJGk/RoNhmLtqwCvwiDzP42gMbiCCIFwAgNJZKsNZ5Fdms7m6oKBgO8Mw3VlZWRCsK/BUZ0zjW+12e48gCDUA8MlsbQPABZ7n9xItRSyYMUrp6wULFmTg3uU4ro1SasazsnbtWvCeGSyeGIk3b95g3WkQRbH8HaMx7Q6lNJu8azRmgOtlWTa7tbV1YnJy8ncAENDYeXhrJUn62G63L3G5XNgF4EF/V2okbW1tbxiGCd9QqTOFYIwYGb1en0kI+Sml9IcMw7gopV2yLLdevnz5n5gVXS6XfY5A4NYew4hoqcaq4FBKayiljRaLpXemAAKYmpr6hBBSqUqRBqZ5ATLT/sOHD3+8aNGisfj4+E6WZaM0+KaJ9Z2BeA8x/uJBDihUhGTjM0ppQFeMzWFcXBykpaVNJwVN3s9gDgCCmQUHnXBzCM4HN2/eBAQQikgIIDPlENS2bdtU2UUfN2zY4GM2AEhnZydkZGQEnQ1QenR0FJBvcnIS/31ECME61A0A/aIoBrQPHMfhOKuUnbCD2EgpLcPKHhkZCTk5OSGjgwuHtvfs2RMayI0bN75IT0/fnpCQoLifvZPa5OTkKzy0oigiCDdhTaKUqk4eFovluleW4zicLKsjIyOXFBYWQkSE8oXMyMjI1JUrV26WlJT4XFcFRKSvr68qKSnp07i4OMVLge7ubhyq/sEwzA7sgvGCwdMV4O9sSKSUfm42m7s5jsPodKelpS3ZujXgosSt+8WLFy8rKipi/bOtJiAYjUuXLmEkUktLS3GK+xPORbPxXkHG3Wp4wezevXuJUlTmBAgesp6enr24naxWazchRNNtpArAXjCVW7Zs+QyzmT8FBXLixAmfPT02Nlak0+lwrwbcnA0PD4+fO3dukafdx2jMOWHf1NLS0puWlja4Zs2agJFgfHz8q8OHD6fU1tb6+E3wFmOmN5guZVmuVlptQkijKIplgiBgxXZfvM0DSTzPcxzH4dkJuMiglF53OBw7AvzW6/WYNqeJYRhsH8pkWQ5IlwzDXCgtLRVdLhd+dJk3wlme4zj0AdOyDzEM0yuKYqW/35pmdtQ4F21/uBVgWTbWaDS6LzXUkmYgDQ0N+YsXL76s1sBs+PCcYDrWIqsZyOnTpyvT09PxXnfe6PXr1wX79u3T9PVrToBg24DNX7BqHAoxyvpflWJRPnbsGI7AqmlOgDQ3N7t7pGB3t6G8QVn/vukbA9LU1HQ9Nzd3W1JS0gLVS+hhRFn/vukbA4Lp8vz586PB+rNQ4FDWv2/6PxAt20Epa/1PRuT48eMfJicnuz8jeOnAgQPk7NmzAzExMZq+BKM8yvr3TUNDQx+dOnWqXssCa85aHMfh8OQzf0uSRLBlmE03jLJK/Z4oivNbEL81QLSE+7/J+x90qxG2fEAhBQAAAABJRU5ErkJggg==;fontSize=14;" vertex="1" parent="1">
          <mxGeometry x="43" y="140" width="50" height="50" as="geometry" />
        </mxCell>
        <mxCell id="WXDt8j99z8qKCZrIY5PG-23" style="edgeStyle=orthogonalEdgeStyle;rounded=0;orthogonalLoop=1;jettySize=auto;html=1;exitX=1;exitY=0.5;exitDx=0;exitDy=0;entryX=0;entryY=0.5;entryDx=0;entryDy=0;fontSize=14;" edge="1" parent="1" source="WXDt8j99z8qKCZrIY5PG-13" target="WXDt8j99z8qKCZrIY5PG-14">
          <mxGeometry relative="1" as="geometry" />
        </mxCell>
        <mxCell id="WXDt8j99z8qKCZrIY5PG-13" value="客户端" style="shape=image;verticalLabelPosition=bottom;verticalAlign=top;imageAspect=0;aspect=fixed;image=data:image/png,iVBORw0KGgoAAAANSUhEUgAAADIAAAAyCAYAAAAeP4ixAAACHUlEQVRoQ+2au0oDURCG/2NQUAt9B5FYJlntDGhh1KcQwQtaeCm8NCLaiBfwUih4QXwKhQiCmzK7GxUlUbQQH0ALLQzxSFYjqLCZWUwKmXQL/5wz/7d/ptlR8PmLRFp7tVITABoAVPk8plD2CuBWab1s24l9P2cpP0Xh5ughNLr81BatUThykmZ3Ud0PAdtIyIj2KWCHexFHr4H+lGXucmrYRiJGNK2BoNclse5OXKRSqKmu/iWrrKpEOn3j2aMCMrZlNpXUSNhozQGqwuuStlgMmfMztLREcH//gGw2+01+eZUu0qN+c6xEoMRGoppzgV+tY5mstLDE+abCxj8y0tHRjtmZKb+wPevm5hcRPz5BWd5I3sjiwlxJjExNz4oRFtn8f0TeCAGZRIsA6ZtEokUkJtEigvqSSbSIxCRaRFASLS4oiRaXmEwtIjGJFhGUTC0uKIkWl5hMLSIxiRYRlEwtLiiJFpeYTC0iMYkWEZRMLS4oiRaXmEwtIjGJFhHU/5xaHPOBwMfn8lwuxykrx8fQ4gsDhY6bjRAmJ0bcx6XlDSStFNFMGRYGKCschW4P9jdRW1vjPj4/v6Cnd5hoBNeOZXquifw8iL0wwFmq2d1eR319nXvn4+MT+gZGSUaU1oO2ndgmiT9FbCP5OuqaUzDYiPGxIfeq1bUtZDLeyzQfPam4Y53GOCbcKm5BQf/3i2f6DqpixUme7vnp6R0Axe9Cj1SrxAAAAABJRU5ErkJggg==;fontSize=14;" vertex="1" parent="1">
          <mxGeometry x="193" y="140" width="50" height="50" as="geometry" />
        </mxCell>
        <mxCell id="WXDt8j99z8qKCZrIY5PG-26" style="edgeStyle=orthogonalEdgeStyle;rounded=0;orthogonalLoop=1;jettySize=auto;html=1;exitX=0.5;exitY=1;exitDx=0;exitDy=0;fontSize=14;" edge="1" parent="1" source="WXDt8j99z8qKCZrIY5PG-14" target="WXDt8j99z8qKCZrIY5PG-15">
          <mxGeometry relative="1" as="geometry" />
        </mxCell>
        <mxCell id="WXDt8j99z8qKCZrIY5PG-14" value="DNS" style="shape=image;verticalLabelPosition=bottom;verticalAlign=top;imageAspect=0;aspect=fixed;image=data:image/png,iVBORw0KGgoAAAANSUhEUgAAADIAAAAyCAYAAAAeP4ixAAAJqElEQVRoQ9VaC7AbVRn+vpPsJghFFEXGe0EcKaMFGZAyiqjUdjfY3mwYy/spAoKKBaTqKI+hvngoouIMjwICAwW0QCF7y22zKVwGBWZoGaQUhIIg914Ei2W0hSa7yf7Oyc3ebkOSJvfh4M4kk+z+r2/P+f/zn//8RJeXzJ27M0y/t1zhHkqpXpFwD0WVEiANkTSIFIC0CPTvtELtfyUEygooCVACUIagJGRJESWE8laIcEQpNVxRiZF1QxtGZq5ZE3RjGtsR+/PsA8KEzEoAhwk4HcAeAHZuwuMDKDEyVBsnLAGijS6BSEKYBiStQVID1cC3flSjTAJvCGQE4JNCFMxk8jHeOzDcyt6mQEqOtUCB3wbwyTrjyxSsFcowRQ2FSobDUIbTSWMIZQxzYKDczdtrpBXH+VBQLfWqpPSEUD0i0kthD5X0QHCAAB8Z5eFjIG4x84XFTYBvvSVHzJkRhOqPAPYFZLECHg4SyUd3uG/FKxMxdKK8o3YlDiHkWAFsEGvMvDczLndsRGTWrHQwzdhSexhyprm8sGaiBkwFv+/YpwK4hMBzhuvNi3SMASk71t0EjxTimFTeWzoVRkyWTD+XORMi14M8K5pmNSBb5s3+WCKR0NPnNtP1TpkshVMpx8/ZqyF4n+l6M2reo7+C3OFfEQkHhDw+lS/cNZUGTJbsspP5JSHfk1BmpJYXn6sBKeXshUpwZZhI7p2+b+ClyVI2lXJKWXueIpaDcqaZL95QA1J27DsUcJjhej1TqXyyZfuOvRnkPWa+8LUaEN/J/EUvPqlYFBiv0tczmR0/mKrOANS+QpkB4b4kX4eEa0NifSrkC+z31o9XfpwvyNkrROTDpls8qA7EfgeCxWa/d954Ffg560CEPInEiVsXsFbS+LRQlpjA7cx7r41bp2PfSCBruN7ulOzsnoCJYYBnm27hmm6FVnJWX3UUwHHd8hJ4UwRLjES4mPeverZb/nLWWkTykqdf22hyS9aalSAfolK2cf/KYjfCKo59agjc3ILHE3ADRIYVaYbAboR8FMCsJvTrDBUe0y0Y38mcDsiN1UTi4/Qd+wwAN1Sr1b12eODBv3cKxHesBQCv3oZeZAnIE/U9IU5O5b3b48/9rP0bEOfqiA/AaNDVNZhSn3W4UlxB4gssZ+0rSJxrup7ORju6ylnrIpI/jROL6OklCwB8Vic5ouSA1P3FtdsCsb4O8ve1e4LvgDi5Th+RdQWmnhuuEwmPY+DY9wgw3XS9/TtB4TvW52pZaOwyfLUrV67c6Du2TttTOvU23cJBjfJ8Z/ZngEQ9h+MfTLdwXP1F/iCiJXG3kfeO7sQWvTcKkpV/U7BQT61HSJaMfMHuhLnsWHcRPHZMscAy+r1VftY6BeSt9fs3m653WqM8WbRIBWv+/BSATxN4LZnkgVxW+Kefs38Fwfkx+m+arnd9J/b4jh2QvFwDeYLg64ZbcLbHGBxhWRLSi+gE+GHK9a7Q/33Hugrgd2vPiPPMvPfbZvJ8x74NwEn6maIcmcwX763x56xbIazleQK8KlRz0vmVL27PJt+xNxG8TgNZS+KvnQynjnBxwTv0Fwej/+2exXla0TXe1zxx+a0A+Y69QRF3aSB6lX3cdD3teP93V5Czh0SwgtEP0/W+0Q5F2bFOILjk3TTyO9MtnhO/7zv2Q3q9IDDLcL2H9bNovRKRH6f6i4si+oi2qe4ONnjRQOgRqQ1NMu/p0NnyKufsiyn4SVOC2AZn1F9GgQB40HS9OeMG0iC3hc/VXEMDqTmL4Ra+335E7DsIHG+63tZdZT1FaPeWBXJRyi3+fHsjEpfbzfyOgpUGUgtfRr5wcVsgWft5Evt0A0SHWAC7CsIvVoU76lSoFeiqyJeb6d+ew0fLR8dAfMfWJR+zGyAgT4fITQQGKiK/aAekxUscNF2vKcCIPnDsR0CWOp5avmO/DGCvboBo2iBnLxXBUSHkfAVe1WJEICK1oBBdOqttpG3qI1l7Ncl/dOzsvmM9CvCQboFI7vC9AwmfAiQEOK0T41r5Uwtnf4bEcx2H38DJ/Fog52lDtvfmoqgVgfadzAJAaplyIxC9p2hmoB4RJZif7PeWtfNd38m8CMhjHS+Ifl/mIChZ3ShUO3QVPCPtFgYa14b46AWO/YAAc7tZRzqJZIFjDwswMKEURRu+aXNl9W6Dg5vjAKN0Ix5x9BQrhdVeTdcutYnL2V7E0rSBY79J4s6uksZu4vv/itZ37LcJXtN1Gl+f/3E7bzVd75Yga88R4qLRB/Ks6RbPbuGcetWvX9WFpvvgk76TWYLRbfAoN+WJVL44tkdp7yN2leSlLDt2nmBPs41QMwEyf25vEFSGGhz+AiNfuCwK0QA2mK63WyN/6atz9lGVxGpApgFYZ7reflEBYQwE8EDK9fo6GdFY4eQc+k7mGkCOaqa4lbByzj6aAn38MHYJcCeA9xMYrZATB5t5b5vgUHbs4wncUWe6CcAnGosRG8vcafdC4e1OgERhOgTnMXCsCwX8mVFJprs5sImH1LG3KXhBpzG16QFcmHK9S+MG+Vn7ShAL689HCGxT2WQYfslYvuqRTkBomqhwYlBN1z6izxtuNhLJvdll3XeLk5mdgKxqoXgQkDeEeFWJMtqXg/hSyKAvnX/o+U5BaLpov6/DNKPtq07aOgl3jYr0+kIl1wpwcDdGxEZx2RbZcvouy//0Vrf8unASAvunXG86y33Wp6j4bLM6VDeCKzlrvog6QSBHdsD3ilCWUmSp6a56ogP6piS6Zk3IiD654r/mzt15Wq2kwh8Z/YXLxys04vNz9kzRh6ih7EWoPQWyJ4iNAP9GyJASDL3p8+FOHbqdPb5jv6MrjXqHGh0rrFfA+viZ3EQBTTV/uS+zH5WsheBbZr93Xb0ab10NcEFUaJtqIyZDvu/YZwG4DpBDTLf4+OiI1NcFXfZM9ReaFBgmQ/XkyvCz9rUgTjU2BR/g4KBuVgCi1VoEy1L93vzJVTk10vRhKIGykfcO1RrGCgm+Y10P8EyGPNRYXnh0atRPjtRoMQ4ROml3Vf82QOorpRAoSMgL3qsNA1FuRmCp4XrHRK9mm16U93oLB0ROA/H5ti0c8UFv1lQjwDMEh4lwRMAR6saaCkY2h8bIrgMD/5nIpGnWOkWyl0TvuJpq3pV+vLvNSSd5uzQxulJrZ9KtTkRJZPR37KNZxtqayHo/19Z7ySYyNwAcAmT8bU7t3q5kMjuW00FvQoweQnqqwl5F2UlYbzwDU6CkKSodQtKK1I1nCEXKCiwJw6iXq1yrR2nQwk0TbZ36L8qqP16zHmkMAAAAAElFTkSuQmCC;fontSize=14;" vertex="1" parent="1">
          <mxGeometry x="343" y="140" width="50" height="50" as="geometry" />
        </mxCell>
        <mxCell id="WXDt8j99z8qKCZrIY5PG-32" style="edgeStyle=orthogonalEdgeStyle;rounded=0;orthogonalLoop=1;jettySize=auto;html=1;exitX=1;exitY=0.5;exitDx=0;exitDy=0;entryX=0;entryY=0.5;entryDx=0;entryDy=0;fontSize=14;curved=1;" edge="1" parent="1" source="WXDt8j99z8qKCZrIY5PG-15" target="WXDt8j99z8qKCZrIY5PG-30">
          <mxGeometry relative="1" as="geometry" />
        </mxCell>
        <mxCell id="WXDt8j99z8qKCZrIY5PG-15" value="" style="rounded=0;whiteSpace=wrap;html=1;fontSize=14;dashed=1;" vertex="1" parent="1">
          <mxGeometry x="235" y="280" width="266" height="130" as="geometry" />
        </mxCell>
        <mxCell id="WXDt8j99z8qKCZrIY5PG-16" value="DDOS高防IP" style="shape=image;verticalLabelPosition=bottom;verticalAlign=top;imageAspect=0;aspect=fixed;image=data:image/png,iVBORw0KGgoAAAANSUhEUgAAADIAAAAyCAYAAAAeP4ixAAAK7ElEQVRoQ7VaC3BcVRn+/rNJulqow5Tdu6EJlteIIpVOC9JSJFW6d1Nb1HEo2bspWopFAcuIVEFGBauIIjDClFd5dNrsvaEdHvJo9m5BQUoBoYA4SB1AkCRk7247jIUZ0yR7f+fc3bu5u7m72Tx6ZjKTved/fef855z//88hTLC173x7Bg7OauFhuxUB0QJQCxOOBHOQQEEGgiAOAggyU1CAgyCM2MyHiGgQwCCYD4EwSJC/Sf7+yLa5nxupL2Db/bmD/f17L1k4PBHTqBZxzBiYCxttLALnAJgH5lYAIR+eIcdA+UfS0OL/zjdpLDeAJUDMcAACQWIJkJzfABp8ZFpg9IP4VWKRJg680NM5u6+avb5Aol2ZFQjQtcQ402Ek5MB4FYQPYKOXYPfaRB8wi96Go0If9CynQxMZvUra9q4Ds9CEFh4eaYWgFtvOt8qZJiI546cCfEyR5wVmbEknlHsqZYwBohrWdjDOZ+ARAZh5ppd2JcKvT8XQqfK2d1sn5PN8OglaDsZqAHtNTVnolVsGRNWtVwAsYMJZ6biyZ6oGHA7+WDJ7PhNvB2GHGVdWuTpKQKJJax0R7iamValEeMfhMGK6ZEYNazExnmebV6Y7I08UvL/YVN3aA8I7Zly5cLoUHk45Ud16GITmdFxZVALS3nWgxRYjvcwcTyci3YfTgOmSHdOtSxi4i8g+LhVvft+ZEdfvhMCJPR3Ku1NRFjNy5zG41YyHN1WTI7f1fF7M39WpPDJZXcuS2dME8WvE9ppUonmLA0TVM5sBsdzUwnMmK9jlixnWbmacBeAxm8QPdsVDH3plxnRrAwMbwdhtJpRzp6JPNawsQE+a8fCaApCktRdEOVMLx6YiOKpnbyDwNWUySKwz46HNMSNzHjPdAuCE0k5DtCYVD2+ZrE5Vt1JghMyEsqA4I1bGQaaF105WaHtXXwtT4xVMuGqsDHoG4Lby7/QWCJtqueB4tkSTmXuJaIWpKRFacPcrjUcf2ToExkYzofxiPObx+pclB5YLCmwYa7iXk36DPG0yV4cGxpNXqz+aHLiOSPxy/8e9TSQXHrN4TwhxSU9HaMzR7ydI1S12vwuIth4t9KyXru2B94IzgjOvAPONFfyPQoiNZkfo1bJ1Ywy0MYu/uN9MTakZA46ux+xaZr5X7ly07EHrLJHHbpBYYcZDT9YzQl4gzHROOhH+qy/g5MAZTOJhAmYysCatKY/60cUmCyRpqUxI2QEsoWhX5gIS1G0zza83pvICAdFXzHj4uXoGoPp2nGtjtic8I+3bD3zBHhl5k23uoJhuXcnAzU34VOhxbdb+egzyAiHQ2SktvNvLpyatc0E8FxBzAT650Ef7APt9ML1vJpSnyl1rkkC6Dsyyxch/CfgxxYzsRmb+makpgXpASBovENvGkl2dyvMlv9Wzmxh8aS1ZBLojpYUvG/X1yQEp2jJMRDdSzLBuYhuXmgllZj1AYnp2CYNLruSNlFXdesd7Towj711TU06UNDGjHIjfLFeTperWx0S4i1QjezuY46amHF17q8stIOQ3gOiCso0UWJzSlBdUPfMEQF+vZzBGafhJU4usUJMDS0Hiz2W8zA8yAjelE6G9tWSqupUDUTepenYzEdpT8XCLH0M0mVsghL2OGev8+oXgRZwXrU6OUN7eJBL3UUCY8jPnbZXZlgfuKWUDwbSKkd8/BkiRiAj32La4pxogVc/2AkhRVLe2EbDIneZKY91DZywIfssG3TDcQI8GR/jvDBzv0jDb1we46ZaeztkHvXwypc3T0JXyEHO/E/DvppnitKH/2cvA2MBueu1hlPLSiebr/AZSNay3mfGiXOw7mPnzpqZ80ZfwoVwzDvErpbyZ8TQId5qa8pCkb9dz59iwn/Hw7jY15exx3EGusSUlMGQvTcWbHRnSzYjEWgYShX76EDNooflt/yhA1a1/ENE+uUYeB3NzZQ7sNcSZFSGOJ9vuTiWad3r73O171Ci6IhUP31YLSMzIrmfmP3porjI15eYyndusxRSgNcz5/mqzIeljevZlJmRI1a1dAAVNLVx1FNWHcs3VRySjAxQfBcLfSMUjj9UG4kTCfxqlYcPUIlo1j6im25lB3ZKzO1gEgmAtd2g3+uf3xOe85qcopltdo24AMPCtaqGIyx/VrW8SUEqqCEimNKXTT34t3eVAjOzjxIiktPDp1UYxpmduk4uQwHfIbKzMBfTsDwnsdaWfmpry+3HWyE8A/M6lYdD6tBa+vcxljcx6ZlpD4OdSWmR9dduKrlVc7CebmnKq79Ruy56IAMvZOKK4+PaSoD+kOkJObh81Ml8mphdHXQv9w4wFT2uK5Sfva7qlNBL2MqOUjTLxmel45KXCYs9eDsJlo6ENPkGe5purw/KwHdNKi93ZfglnmnHlJF9Cw/oVGD8f20f7mPnX6YSSLKwzeNPWxyhv35paXdiJ3BbbNtDGAfEjAOd5Pj9lasqymOGE5FLPZ8foImw04/65Umn7lQeiXPymFpZ1XR/EB04BRi4CcKVfv8xH8oxPiGxZ3CtvhB3EcMAwoU1WMCtJmMXCAOGIii3cS3YL0HC/qc1+09++4oFYDFE6TE3xK06XeKNbM2EE+FLvYSY73cQqpmd+y6Cr/ZRV+0bgG1Na5BqfswjyEESe7khfGMnWklkKUZygkfF9U1OOrNeIahmiamQfAPN365JDtEVWPyRtJZB6M0TJWwoai2H81aamNNZlQEUYX5nqqkbme2C61tfXCwr+A+LfmPGIdGmnTRFIMYwvJlbCbvhMZWxUDdi4Ofv27BFNeZ5H8k7FxmJHjsAeBt4YCtAbz6wKf+KVPVkgMnYrJVZuqisaGk7pWTX7n/XMynhA6pExLUC8qa5bfCBGLJVQnJB7vFaW6ubtpZXbrMsf1fd/lZCX582nie3LKw9Tl664LU84Z495iw9uOYiILk7Fw/eNB6K4wErlIPIBEjM+mmvz0AYCylNe5pchAtdXVmsmDaRw9hTKQW6BrlbMXw84l0Y1speBWeYbVbdzBneDxZ3Vykj16isr0BVHOMPMT6QTkYvrFVJJt1L/8OghDmwFob2yTw5S5flToOHNphbxzTzrsaOsZOoAcYrYyJmaMqUidnHrHa1WEr2cHx75zlMXHvNWdGvmOGqgO6U610gWYmW6I+TcOE2m+RSx5bUCrZTF4MkI9PJE9YxBoA4wX2smIjdUyosamYuI6VYCPZvSwt6Ya8KqVd3KgKindK1QuuiZwBZcTavabX0pwKJxZzw0NvYqMjnhTlPgjKnMRmx77nM8Yu8ru+hxr94msnNNePimmUFNWqtB2Fp29VZc8HsAOmRq4aXTrPOwiIsZ1t02MK/sMlRqcq+nmWhtOh6+/7BonyahstYm0wbf6+nirBQeDLBYOF6Fb5psmrCYqJG9iJjvq/pgwJXoPuGQFT62sZsaxd9Sq0L/mrDGaWSQ1weczy9iRmfxJqz2Ew5X95hHNYDMv19n5j6A+4QI9MLmPmps6MUQ+uqNmqtha9/JM0Y+yh1LZLcK5mMZohUCrWAcC+A0AEqRt/5HNV5lZc+cbJ4HcgoGrlAv6Yj7DouJBsl98sRw3mUBNAL5bqvwpEk+dwo6z57c30CTD0hZnO4F25N/5lTLK2RsFpo1Z05eiDk0zC1C0BwQHSUNZWms8y6r8A6LmYNC/s9osEGDRFx8eFYAy+BBSOCMj+VMI2/3UaPoxayDfT3LT5rQ06n/A9wJhBSTEWuvAAAAAElFTkSuQmCC;dashed=1;fontSize=14;" vertex="1" parent="1">
          <mxGeometry x="278" y="323" width="50" height="50" as="geometry" />
        </mxCell>
        <mxCell id="WXDt8j99z8qKCZrIY5PG-17" value="WAF应用防火墙" style="shape=image;verticalLabelPosition=bottom;verticalAlign=top;imageAspect=0;aspect=fixed;image=data:image/png,iVBORw0KGgoAAAANSUhEUgAAADIAAAAyCAYAAAAeP4ixAAAIg0lEQVRoQ7VabWxT1xl+3uOkRNpgYxDfZElQJxWt0K6qBmVUo6XVGl+njP7YRIrtgAatuu5Pu63dtA9t/Zi2SWNfaNU2aGm7El8z0PaniPgaJmBFYw2wbmLrx9g0RJLG14GxhlYNYJ9nOo6dOCGJrxP7SJFy730/nsfn6z3veQUVto4DZ+ZheEErr+o2BFQrIK0UzAfZIJAGAg0QNgBoIKVBgQ0QZDV5WURGAIyAvAzBiMA8i3m+qDUHWC/9Aa0HhoYHBk59ceXVSqDJTMLhxOD10LiLKrAWwC0g2wA0TqFzJQ/Q/IkBWvg//86AZR1oCGJeniDQIDQEJf8MoG4Kmx6IAQj/IlQpYeB4T9ei/unwTkkk1J3+LALybSFWFxQ9AH+F4Bw0+gS6T4ucI1Vf3cLGcz33yuVKfr3Jsh3dFxbgOrTyarYNSlq1zrWZnhaRVgC3ArAKOsdJvJiKWTsn27iGiJ3w9oLYIIKd1Dgm9ao32dn41lyAzlW3Y++F5czlbifRBfAuAKfcqLWy1O4EIraTPg3IzaRamYo1nporgFrohxKZrULugmCfG7E6iz7GiNjx9Lcg8n2hdCZjwX21AFEtm6H40AoRfZKa61NdTfuN3XEiCe80gNfciLW5Wg5raSec8HZo4JZUxLp9jEh7PLNUCf9JMpKKNe2pJYBq2bbj3iYIXhLRH0tGms/meyQU92Ii6FYKN/RstP5dLWe1tBPeO/RxZvWbQr0lGWt+MU/EdjK7AITdaLClls6rbdt2vDREetxIcMsokbh3CoIhN2qFq+0snLh4vbGZjCw8W23btuMlIdLoRoIrCj3ipUnuT8WaHpyrs9H5ptdC5E5orIVgSd4mcQ4KR0H+UVMdPRgLnpmrr1A8/ZyI3OdGraCs2HGyfvH8tiukfioVa36yUuMd3YPLc6LWipJVoF4FyHJ/Nvg6RPVSszdAfbSnq/l1f3rjUqH44JMi6gn14eEGMfEUqf4jIg8mI0EzV2ZsIef8jcKrq6DkNhAG+G2ly3g5/Wm+E+AJCHqheYJS35uKLn6znK1wIvMAyefMIiXtv/U+rXI4JkQ4GbPccsp2PH0IIp8pJzen7+Qf3FjTPeVshOOeTUFScvpuCXWn7xcle1Rd3U09nYvKdq+d8H4H4nPlnMzpu+D3bsT6fDkbJgbT2ew/BNgkYcf7KoGfKF33oZ6uRcPllG0n8zzALSVyZyWnS58nmGBAvQCRI5LN/WY623kZIL+6jTZ5wY0Gt5bDYqJmrbLvCOSbEk5kvkfyG27Uqi+naL7bTuZnAL9c4vSIGw3ePZ2u7WQOk7mjMy0kRqYQ1RaJ/NyNBr/iD493FSI/knDC20biYTdqzfep+BSA79aWCJ52o9YTPvFcArBT7ETmFyA3ulFrqpPfNbaKQ7GWRAR4LBm1fuqTyBCBvWI7mWcL4Yk5xpZtxSWvVNDsQVCK0Pqag5pZ541sXmaaVpQZmyE+t4LCUO8TgSshx9stgtVuxFpaloVhHB/cQFF7J8rKkdFn3jR+pi++m2w1f8IzE7qgk9crvCt8oe5Mxpp9nYnshHdGiFfNZN9H8kY3an3CD5H2bi+kFEr2G5kw2W3Ho1nXk5uaS4COWx7djQNrSxeIyZNda9gHu6yUHzy2kz9HvWXmyMtCNCWjQbNDl22hRPpTQvnzdHOkGkQoXJ2KNL1aFowZIU7mBKE9sR3voEnJuFHrDj+K+RAFuTdqSgSBZX5ClNE54r1i0lAVE2lPDH1UUQ9MRWRsp53h3O9raIlqORhpfNvPD2s7mVcAjlQ+tF5Kf0Dq5F0/TmYrwyw/mNrc9J4ffdvxTkJksOLJXuhOjjvhfyXHaeMiBtRhk4eSnH58OmAFmeJnc8AL+iFRwPJ3EXmj4uW3oJwpXWarGaIIZE8yGoxUQORfBI5XvCEaB4WT2QPF/aCaRKDxJbfL+rVfIuFEpp9ET8UhinEQdjJrKDwEmqT0xH1kMoBKgkYBTmfr6u841PmRd/wSsR3vPEQSFQeNRQfjMVf15giVWp/a2JjPHPptdtx7TxR+WXEYX+rAdtK7ACl7bvADisC2VNT6uh/ZiRi8nIj8oOKD1bVDx+sxo61SAJPkk27U6qjUxnpnePEVvD9kouWKj7pTOQslvMeF2FYpECNPwddSEevHs9Ftj2duVcLXqLmx4uTDdA5tJ7MF4POVAZKtbjRojrmzanZiaB2o9+sA1lScDprJYziRvo9UjwG8cyY5EaSE6pmeaOPLs2JQUOrYM/SQ1nqHSWTPOUE3FRA7nn4Ukic0+bDWC+IZN2btnguBoq4d956G4DvnL/VdV/WUadFJR3d/K6X+UQoeAWmCzO1urGl7NQiMEckn37nOjVpNNU9i27vf/iSp+lObm0xYU9VmO5kkyEY3ZhWT2OlnAVlvmFXVU42N2Y73PkT2jF0rhOOZDRTu9ZttrDE+X+aLmCdc9HR0X2jVKtvnN5Hty1ONheyE9ysQD0+4ejM+bcf7E4B33agVqjGGOZtfF//fwqxc+RuFAxMuQ43lUNx7SAQ7il01Z281NBBOZB4huX3K6+lCr5wEsIjED6cqk6ghNt+mw/HBL9Ak/QQnpiwYGFubE94BECaAOyXE4Rz04YOx5gO+PdVAcLyEg/cDaC9bwlHEMDrMTMZdlhXemUTAMZL9APuVCvRBs1/q6/pwBf1+riNm4tdxgPOyF4eWiOg2RS4hVBsU2sD8/ePsimpKHd6z5/yyALkG1GtA3AyBub4uVuqUimaLdVgUGZFiyRORr8sCJAtTtzVa0mTKnRryZU/FZ+C6KYgOQaQP1LMvc5rp1zOXp40LWlpySrXIVbYqJS0QWWiA0oDN12WN1mGRbFDmf6JOQ0ZEWCg8GyVLcASGOHHJ9DRyul/qVR8WDPf33Lu0otKp/wNIn5lje2vrMgAAAABJRU5ErkJggg==;dashed=1;fontSize=14;" vertex="1" parent="1">
          <mxGeometry x="413" y="320" width="50" height="50" as="geometry" />
        </mxCell>
        <mxCell id="WXDt8j99z8qKCZrIY5PG-18" value="防火墙" style="text;html=1;strokeColor=none;fillColor=none;align=center;verticalAlign=middle;whiteSpace=wrap;rounded=0;dashed=1;fontSize=14;fontStyle=1" vertex="1" parent="1">
          <mxGeometry x="248" y="290" width="60" height="20" as="geometry" />
        </mxCell>
        <mxCell id="WXDt8j99z8qKCZrIY5PG-19" value="" style="rounded=0;whiteSpace=wrap;html=1;dashed=1;fontSize=14;" vertex="1" parent="1">
          <mxGeometry x="773" y="90" width="530" height="300" as="geometry" />
        </mxCell>
        <mxCell id="WXDt8j99z8qKCZrIY5PG-28" value="流量网关" style="text;html=1;strokeColor=none;fillColor=none;align=center;verticalAlign=middle;whiteSpace=wrap;rounded=0;dashed=1;fontSize=14;fontStyle=1" vertex="1" parent="1">
          <mxGeometry x="783" y="110" width="80" height="20" as="geometry" />
        </mxCell>
        <mxCell id="WXDt8j99z8qKCZrIY5PG-33" style="rounded=0;orthogonalLoop=1;jettySize=auto;html=1;fontSize=14;" edge="1" parent="1" source="WXDt8j99z8qKCZrIY5PG-30" target="WXDt8j99z8qKCZrIY5PG-19">
          <mxGeometry relative="1" as="geometry" />
        </mxCell>
        <mxCell id="WXDt8j99z8qKCZrIY5PG-30" value="负载均衡（SLB）" style="rounded=0;whiteSpace=wrap;html=1;dashed=1;fontSize=14;" vertex="1" parent="1">
          <mxGeometry x="583" y="90" width="90" height="310" as="geometry" />
        </mxCell>
        <mxCell id="WXDt8j99z8qKCZrIY5PG-40" style="edgeStyle=none;rounded=0;orthogonalLoop=1;jettySize=auto;html=1;exitX=1;exitY=0.5;exitDx=0;exitDy=0;entryX=0;entryY=0.5;entryDx=0;entryDy=0;fontSize=14;" edge="1" parent="1" source="WXDt8j99z8qKCZrIY5PG-34" target="WXDt8j99z8qKCZrIY5PG-39">
          <mxGeometry relative="1" as="geometry" />
        </mxCell>
        <mxCell id="WXDt8j99z8qKCZrIY5PG-34" value="" style="rounded=0;whiteSpace=wrap;html=1;fontSize=14;dashed=1;" vertex="1" parent="1">
          <mxGeometry x="793" y="150" width="130" height="220" as="geometry" />
        </mxCell>
        <mxCell id="WXDt8j99z8qKCZrIY5PG-35" value="Nginx" style="text;html=1;strokeColor=none;fillColor=none;align=center;verticalAlign=middle;whiteSpace=wrap;rounded=0;dashed=1;fontSize=14;fontStyle=1" vertex="1" parent="1">
          <mxGeometry x="803" y="155" width="40" height="20" as="geometry" />
        </mxCell>
        <mxCell id="WXDt8j99z8qKCZrIY5PG-36" value="流量分发" style="rounded=0;whiteSpace=wrap;html=1;fontSize=14;" vertex="1" parent="1">
          <mxGeometry x="813" y="200" width="90" height="40" as="geometry" />
        </mxCell>
        <mxCell id="WXDt8j99z8qKCZrIY5PG-37" value="IP防刷" style="rounded=0;whiteSpace=wrap;html=1;fontSize=14;" vertex="1" parent="1">
          <mxGeometry x="813" y="258" width="90" height="40" as="geometry" />
        </mxCell>
        <mxCell id="WXDt8j99z8qKCZrIY5PG-38" value="跨域访问" style="rounded=0;whiteSpace=wrap;html=1;fontSize=14;" vertex="1" parent="1">
          <mxGeometry x="813" y="310" width="90" height="40" as="geometry" />
        </mxCell>
        <mxCell id="WXDt8j99z8qKCZrIY5PG-39" value="" style="rounded=0;whiteSpace=wrap;html=1;fontSize=14;dashed=1;" vertex="1" parent="1">
          <mxGeometry x="963" y="150" width="320" height="220" as="geometry" />
        </mxCell>
        <mxCell id="WXDt8j99z8qKCZrIY5PG-41" value="Kong" style="text;html=1;strokeColor=none;fillColor=none;align=center;verticalAlign=middle;whiteSpace=wrap;rounded=0;fontSize=14;fontStyle=1" vertex="1" parent="1">
          <mxGeometry x="976" y="155" width="40" height="20" as="geometry" />
        </mxCell>
        <mxCell id="WXDt8j99z8qKCZrIY5PG-43" value="" style="rounded=0;whiteSpace=wrap;html=1;dashed=1;fontSize=14;" vertex="1" parent="1">
          <mxGeometry x="770" y="440" width="840" height="100" as="geometry" />
        </mxCell>
        <mxCell id="WXDt8j99z8qKCZrIY5PG-45" value="灰度控制" style="rounded=0;whiteSpace=wrap;html=1;fontSize=14;" vertex="1" parent="1">
          <mxGeometry x="976" y="200" width="90" height="40" as="geometry" />
        </mxCell>
        <mxCell id="WXDt8j99z8qKCZrIY5PG-46" value="服务注册" style="rounded=0;whiteSpace=wrap;html=1;fontSize=14;" vertex="1" parent="1">
          <mxGeometry x="1203" y="482" width="90" height="40" as="geometry" />
        </mxCell>
        <mxCell id="WXDt8j99z8qKCZrIY5PG-47" value="存储资源" style="text;html=1;strokeColor=none;fillColor=none;align=center;verticalAlign=middle;whiteSpace=wrap;rounded=0;dashed=1;fontSize=14;fontStyle=1" vertex="1" parent="1">
          <mxGeometry x="793" y="450" width="60" height="20" as="geometry" />
        </mxCell>
        <mxCell id="WXDt8j99z8qKCZrIY5PG-49" value="" style="endArrow=none;dashed=1;html=1;dashPattern=1 3;strokeWidth=2;fontSize=14;" edge="1" parent="1">
          <mxGeometry width="50" height="50" relative="1" as="geometry">
            <mxPoint x="1143" y="542" as="sourcePoint" />
            <mxPoint x="1143" y="440" as="targetPoint" />
          </mxGeometry>
        </mxCell>
        <mxCell id="WXDt8j99z8qKCZrIY5PG-50" value="PostgreSQL" style="shape=cylinder3;whiteSpace=wrap;html=1;boundedLbl=1;backgroundOutline=1;size=15;fontSize=14;" vertex="1" parent="1">
          <mxGeometry x="870" y="470" width="90" height="55" as="geometry" />
        </mxCell>
        <mxCell id="WXDt8j99z8qKCZrIY5PG-51" value="Consul" style="text;html=1;strokeColor=none;fillColor=none;align=center;verticalAlign=middle;whiteSpace=wrap;rounded=0;dashed=1;fontSize=14;fontStyle=1" vertex="1" parent="1">
          <mxGeometry x="1164" y="450" width="40" height="20" as="geometry" />
        </mxCell>
        <mxCell id="WXDt8j99z8qKCZrIY5PG-52" value="Redis" style="shape=cylinder3;whiteSpace=wrap;html=1;boundedLbl=1;backgroundOutline=1;size=15;fontSize=14;" vertex="1" parent="1">
          <mxGeometry x="1023" y="470" width="90" height="55" as="geometry" />
        </mxCell>
        <mxCell id="WXDt8j99z8qKCZrIY5PG-53" value="服务发现" style="rounded=0;whiteSpace=wrap;html=1;fontSize=14;" vertex="1" parent="1">
          <mxGeometry x="1350" y="482" width="90" height="40" as="geometry" />
        </mxCell>
        <mxCell id="WXDt8j99z8qKCZrIY5PG-54" value="健康检查" style="rounded=0;whiteSpace=wrap;html=1;fontSize=14;" vertex="1" parent="1">
          <mxGeometry x="1490" y="482" width="90" height="40" as="geometry" />
        </mxCell>
        <mxCell id="WXDt8j99z8qKCZrIY5PG-55" value="" style="rounded=0;whiteSpace=wrap;html=1;dashed=1;fontSize=14;" vertex="1" parent="1">
          <mxGeometry x="1380" y="248" width="230" height="142" as="geometry" />
        </mxCell>
        <mxCell id="WXDt8j99z8qKCZrIY5PG-56" value="三户中心" style="text;html=1;strokeColor=none;fillColor=none;align=center;verticalAlign=middle;whiteSpace=wrap;rounded=0;dashed=1;fontSize=14;fontStyle=1" vertex="1" parent="1">
          <mxGeometry x="1390" y="260" width="70" height="10" as="geometry" />
        </mxCell>
        <mxCell id="WXDt8j99z8qKCZrIY5PG-60" value="" style="rounded=0;whiteSpace=wrap;html=1;dashed=1;fontSize=14;" vertex="1" parent="1">
          <mxGeometry x="1380" y="90" width="230" height="140" as="geometry" />
        </mxCell>
        <mxCell id="WXDt8j99z8qKCZrIY5PG-61" value="中间件统一管理平台" style="text;html=1;strokeColor=none;fillColor=none;align=center;verticalAlign=middle;whiteSpace=wrap;rounded=0;dashed=1;fontSize=14;fontStyle=1" vertex="1" parent="1">
          <mxGeometry x="1390" y="100" width="130" height="10" as="geometry" />
        </mxCell>
        <mxCell id="WXDt8j99z8qKCZrIY5PG-62" value="" style="rounded=0;whiteSpace=wrap;html=1;dashed=1;fontSize=14;" vertex="1" parent="1">
          <mxGeometry x="770" y="590" width="840" height="140" as="geometry" />
        </mxCell>
        <mxCell id="WXDt8j99z8qKCZrIY5PG-63" value="API服务（小前台）" style="text;html=1;strokeColor=none;fillColor=none;align=center;verticalAlign=middle;whiteSpace=wrap;rounded=0;dashed=1;fontSize=14;fontStyle=1" vertex="1" parent="1">
          <mxGeometry x="783" y="600" width="140" height="20" as="geometry" />
        </mxCell>
        <mxCell id="WXDt8j99z8qKCZrIY5PG-64" value="服务路由" style="rounded=0;whiteSpace=wrap;html=1;fontSize=14;" vertex="1" parent="1">
          <mxGeometry x="1080" y="200" width="90" height="40" as="geometry" />
        </mxCell>
        <mxCell id="WXDt8j99z8qKCZrIY5PG-65" value="故障转移" style="rounded=0;whiteSpace=wrap;html=1;fontSize=14;" vertex="1" parent="1">
          <mxGeometry x="1184" y="200" width="90" height="40" as="geometry" />
        </mxCell>
        <mxCell id="WXDt8j99z8qKCZrIY5PG-66" value="权限控制" style="rounded=0;whiteSpace=wrap;html=1;fontSize=14;" vertex="1" parent="1">
          <mxGeometry x="974" y="255" width="90" height="40" as="geometry" />
        </mxCell>
        <mxCell id="WXDt8j99z8qKCZrIY5PG-67" value="黑白名单" style="rounded=0;whiteSpace=wrap;html=1;fontSize=14;" vertex="1" parent="1">
          <mxGeometry x="1078" y="255" width="90" height="40" as="geometry" />
        </mxCell>
        <mxCell id="WXDt8j99z8qKCZrIY5PG-68" value="负载均衡" style="rounded=0;whiteSpace=wrap;html=1;fontSize=14;" vertex="1" parent="1">
          <mxGeometry x="1182" y="255" width="90" height="40" as="geometry" />
        </mxCell>
        <mxCell id="WXDt8j99z8qKCZrIY5PG-69" value="健康检查" style="rounded=0;whiteSpace=wrap;html=1;fontSize=14;" vertex="1" parent="1">
          <mxGeometry x="974" y="310" width="90" height="40" as="geometry" />
        </mxCell>
        <mxCell id="WXDt8j99z8qKCZrIY5PG-70" value="审计日志" style="rounded=0;whiteSpace=wrap;html=1;fontSize=14;" vertex="1" parent="1">
          <mxGeometry x="1078" y="310" width="90" height="40" as="geometry" />
        </mxCell>
        <mxCell id="WXDt8j99z8qKCZrIY5PG-71" value="服务限流" style="rounded=0;whiteSpace=wrap;html=1;fontSize=14;" vertex="1" parent="1">
          <mxGeometry x="1182" y="310" width="90" height="40" as="geometry" />
        </mxCell>
        <mxCell id="WXDt8j99z8qKCZrIY5PG-72" value="灰度策略" style="rounded=0;whiteSpace=wrap;html=1;fontSize=14;" vertex="1" parent="1">
          <mxGeometry x="1390" y="128" width="90" height="40" as="geometry" />
        </mxCell>
        <mxCell id="WXDt8j99z8qKCZrIY5PG-73" value="资源管理" style="rounded=0;whiteSpace=wrap;html=1;fontSize=14;" vertex="1" parent="1">
          <mxGeometry x="1390" y="285" width="90" height="40" as="geometry" />
        </mxCell>
        <mxCell id="WXDt8j99z8qKCZrIY5PG-74" value="权限管理" style="rounded=0;whiteSpace=wrap;html=1;fontSize=14;" vertex="1" parent="1">
          <mxGeometry x="1390" y="340" width="90" height="40" as="geometry" />
        </mxCell>
        <mxCell id="WXDt8j99z8qKCZrIY5PG-75" value="灰度用户" style="rounded=0;whiteSpace=wrap;html=1;fontSize=14;" vertex="1" parent="1">
          <mxGeometry x="1390" y="179" width="90" height="40" as="geometry" />
        </mxCell>
        <mxCell id="WXDt8j99z8qKCZrIY5PG-76" value="灰度计数" style="rounded=0;whiteSpace=wrap;html=1;fontSize=14;" vertex="1" parent="1">
          <mxGeometry x="1500" y="128" width="90" height="40" as="geometry" />
        </mxCell>
        <mxCell id="WXDt8j99z8qKCZrIY5PG-79" value="灰度服务" style="rounded=0;whiteSpace=wrap;html=1;fontSize=14;" vertex="1" parent="1">
          <mxGeometry x="1500" y="179" width="90" height="40" as="geometry" />
        </mxCell>
        <mxCell id="WXDt8j99z8qKCZrIY5PG-81" value="角色管理" style="rounded=0;whiteSpace=wrap;html=1;fontSize=14;" vertex="1" parent="1">
          <mxGeometry x="1500" y="285" width="90" height="40" as="geometry" />
        </mxCell>
        <mxCell id="WXDt8j99z8qKCZrIY5PG-82" value="Token管理" style="rounded=0;whiteSpace=wrap;html=1;fontSize=14;" vertex="1" parent="1">
          <mxGeometry x="1500" y="340" width="90" height="40" as="geometry" />
        </mxCell>
        <mxCell id="WXDt8j99z8qKCZrIY5PG-83" value="" style="shape=flexArrow;endArrow=classic;startArrow=classic;html=1;fontSize=14;" edge="1" parent="1">
          <mxGeometry width="50" height="50" relative="1" as="geometry">
            <mxPoint x="1303" y="159.5" as="sourcePoint" />
            <mxPoint x="1381" y="159.5" as="targetPoint" />
            <Array as="points">
              <mxPoint x="1341" y="159.5" />
            </Array>
          </mxGeometry>
        </mxCell>
        <mxCell id="WXDt8j99z8qKCZrIY5PG-84" value="" style="shape=flexArrow;endArrow=classic;startArrow=classic;html=1;fontSize=14;" edge="1" parent="1">
          <mxGeometry width="50" height="50" relative="1" as="geometry">
            <mxPoint x="1303" y="324" as="sourcePoint" />
            <mxPoint x="1381" y="324" as="targetPoint" />
            <Array as="points" />
          </mxGeometry>
        </mxCell>
        <mxCell id="WXDt8j99z8qKCZrIY5PG-85" value="" style="shape=flexArrow;endArrow=classic;startArrow=classic;html=1;fontSize=14;" edge="1" parent="1">
          <mxGeometry width="50" height="50" relative="1" as="geometry">
            <mxPoint x="1016" y="440" as="sourcePoint" />
            <mxPoint x="1016" y="390" as="targetPoint" />
            <Array as="points" />
          </mxGeometry>
        </mxCell>
        <mxCell id="WXDt8j99z8qKCZrIY5PG-86" value="" style="shape=flexArrow;endArrow=classic;startArrow=classic;html=1;fontSize=14;" edge="1" parent="1">
          <mxGeometry width="50" height="50" relative="1" as="geometry">
            <mxPoint x="1389" y="590" as="sourcePoint" />
            <mxPoint x="1389" y="540" as="targetPoint" />
            <Array as="points" />
          </mxGeometry>
        </mxCell>
        <mxCell id="WXDt8j99z8qKCZrIY5PG-87" value="" style="shape=flexArrow;endArrow=classic;startArrow=classic;html=1;fontSize=14;" edge="1" parent="1">
          <mxGeometry width="50" height="50" relative="1" as="geometry">
            <mxPoint x="1495" y="440" as="sourcePoint" />
            <mxPoint x="1494.5" y="390" as="targetPoint" />
            <Array as="points">
              <mxPoint x="1494.5" y="420" />
            </Array>
          </mxGeometry>
        </mxCell>
      </root>
    </mxGraphModel>
  </diagram>
</mxfile>
